<?xml version="1.0"?>
<svg xmlns="http://www.w3.org/2000/svg" xmlns:xlink="http://www.w3.org/1999/xlink" xmlns:svgjs="http://svgjs.com/svgjs" version="1.1" width="512" height="512" x="0" y="0" viewBox="0 0 512 512" style="enable-background:new 0 0 512 512" xml:space="preserve" class=""><g>
<path xmlns="http://www.w3.org/2000/svg" style="" d="M197.192,209.556h5.72c5.688-23.928,27.256-41.856,53.04-41.856c6.264,0,12.616,1.384,17.872,3.136  c12.616-35.8,46.776-61.512,87.064-61.512c51,0,92.344,41.136,92.344,91.88c0,3.2-0.176,6.344-0.48,9.464  c33.52,5.768,59.248,34.944,59.248,69.88c0,39.048-32.104,71.008-71.344,71.008H197.224c-39.24,0-71.344-31.944-71.344-71.008  C125.848,241.516,157.952,209.556,197.192,209.556z" fill="#baacff" data-original="#b5c0d6" class=""/>
<path xmlns="http://www.w3.org/2000/svg" style="" d="M314.808,260.676h-5.72c-5.688-23.928-27.256-41.856-53.04-41.856  c-6.264,0-12.616,1.384-17.872,3.136c-12.616-35.8-46.776-61.512-87.064-61.512c-51,0-92.344,41.136-92.344,91.88  c0,3.2,0.176,6.344,0.48,9.464C25.728,267.548,0,296.732,0,331.668c0,39.048,32.104,71.008,71.344,71.008h243.424  c39.24,0,71.344-31.944,71.344-71.008C386.152,292.636,354.048,260.676,314.808,260.676z" fill="#7e68e7" data-original="#dfe6f4" class=""/>
<g xmlns="http://www.w3.org/2000/svg">
</g>
<g xmlns="http://www.w3.org/2000/svg">
</g>
<g xmlns="http://www.w3.org/2000/svg">
</g>
<g xmlns="http://www.w3.org/2000/svg">
</g>
<g xmlns="http://www.w3.org/2000/svg">
</g>
<g xmlns="http://www.w3.org/2000/svg">
</g>
<g xmlns="http://www.w3.org/2000/svg">
</g>
<g xmlns="http://www.w3.org/2000/svg">
</g>
<g xmlns="http://www.w3.org/2000/svg">
</g>
<g xmlns="http://www.w3.org/2000/svg">
</g>
<g xmlns="http://www.w3.org/2000/svg">
</g>
<g xmlns="http://www.w3.org/2000/svg">
</g>
<g xmlns="http://www.w3.org/2000/svg">
</g>
<g xmlns="http://www.w3.org/2000/svg">
</g>
<g xmlns="http://www.w3.org/2000/svg">
</g>
</g></svg>
