<svg width="390" height="512" viewBox="0 0 390 512" fill="none" xmlns="http://www.w3.org/2000/svg">
<path d="M195 0C87.48 0 0 87.48 0 195C0 237.55 13.44 277.98 38.9 311.9L182.98 505.951C183.34 506.421 183.89 506.601 184.29 507.021C191.49 514.731 201.88 512.791 207.01 505.951C248.5 450.591 324.55 347.2 353.79 308.2C353.79 308.2 353.8 308.17 353.81 308.15L353.99 307.91C377.55 274.81 390 235.77 390 195C390 87.48 302.52 0 195 0ZM195 300.2C137.11 300.2 89.8 252.89 89.8 195C89.8 137.11 137.11 89.8 195 89.8C252.89 89.8 300.2 137.11 300.2 195C300.2 252.89 252.89 300.2 195 300.2Z" fill="white"/>
</svg>
