<?xml version="1.0"?>
<svg xmlns="http://www.w3.org/2000/svg" xmlns:xlink="http://www.w3.org/1999/xlink" xmlns:svgjs="http://svgjs.com/svgjs" version="1.1" width="512" height="512" x="0" y="0" viewBox="0 0 512 512" style="enable-background:new 0 0 512 512" xml:space="preserve" class=""><g><g xmlns="http://www.w3.org/2000/svg"><path d="m419.491 151.015c-6.167-30.205-30.703-53.848-62.446-58.872-13.096-52.72-61.011-92.143-116.045-92.143-54.917 0-102.305 38.837-115.737 91.117-1.407-.073-2.827-.117-4.263-.117-66.167 0-121 53.833-121 120s54.833 120 121 120h300c49.629 0 91-40.371 91-90 0-50.127-42.06-90.908-92.509-89.985z" fill="#7e68e7" data-original="#000000" style="" class=""/><path d="m181 436c0-19.175-22.837-54.302-32.651-68.525-5.625-8.115-19.072-8.115-24.697 0-9.815 14.223-32.652 49.35-32.652 68.525 0 24.814 20.186 46 45 46s45-21.186 45-46z" fill="#7e68e7" data-original="#000000" style="" class=""/><path d="m301 467c0-19.175-22.837-55.302-32.651-69.525-5.625-8.115-19.072-8.115-24.697 0-9.815 14.223-32.652 50.35-32.652 69.525 0 24.814 20.186 45 45 45s45-20.186 45-45z" fill="#7e68e7" data-original="#000000" style="" class=""/><path d="m421 436c0-19.175-22.837-54.302-32.651-68.525-5.625-8.115-19.072-8.115-24.697 0-9.815 14.223-32.652 49.35-32.652 68.525 0 24.814 20.186 46 45 46s45-21.186 45-46z" fill="#7e68e7" data-original="#000000" style="" class=""/></g></g></svg>
